<?xml version="1.0" standalone="no"?>
<!DOCTYPE svg PUBLIC "-//W3C//DTD SVG 20010904//EN"
 "http://www.w3.org/TR/2001/REC-SVG-20010904/DTD/svg10.dtd">
<svg version="1.0" xmlns="http://www.w3.org/2000/svg"
 width="766.000000pt" height="766.000000pt" viewBox="0 0 766.000000 766.000000"
 preserveAspectRatio="xMidYMid meet">
<metadata>
Created by potrace 1.14, written by Peter Selinger 2001-2017
</metadata>
<g transform="translate(0.000000,766.000000) scale(0.100000,-0.100000)"
fill="#000000" stroke="none">
<path d="M2135 7630 c3 -6 -2 -10 -12 -10 -15 0 -16 -2 -3 -10 13 -8 13 -10
-1 -10 -9 0 -26 -13 -39 -30 -13 -16 -30 -30 -39 -30 -14 0 -14 -2 -1 -10 13
-8 13 -10 -2 -10 -10 0 -22 -9 -28 -20 -6 -11 -16 -17 -22 -14 -6 4 -8 3 -5
-3 3 -5 -5 -17 -18 -27 -14 -10 -22 -23 -18 -29 4 -7 0 -8 -11 -4 -14 6 -17 3
-12 -8 3 -9 2 -14 -3 -11 -5 3 -11 -1 -15 -9 -3 -8 -13 -15 -23 -15 -15 0 -16
-2 -3 -10 13 -8 13 -10 -2 -10 -10 0 -22 -9 -28 -20 -6 -11 -16 -17 -22 -14
-6 4 -8 3 -5 -3 3 -5 -5 -17 -18 -27 -14 -10 -22 -23 -18 -29 4 -7 0 -8 -11
-4 -14 5 -17 3 -12 -8 3 -8 0 -15 -7 -15 -7 0 -18 -9 -25 -20 -7 -12 -18 -18
-24 -14 -8 5 -9 2 -5 -9 3 -9 3 -16 -1 -14 -4 1 -27 -17 -51 -40 -23 -24 -48
-43 -54 -43 -9 0 -9 -2 0 -8 9 -6 6 -11 -8 -21 -16 -9 -19 -9 -14 0 6 8 4 10
-4 5 -7 -5 -10 -15 -7 -23 4 -11 2 -13 -9 -9 -8 3 -15 1 -15 -4 0 -6 -16 -26
-35 -44 -19 -19 -35 -39 -35 -46 0 -6 -4 -8 -10 -5 -5 3 -10 1 -10 -5 0 -6 -5
-8 -12 -4 -9 5 -9 2 1 -9 11 -14 11 -17 0 -17 -11 0 -11 -2 1 -10 13 -9 13
-10 0 -10 -13 0 -13 -1 0 -10 12 -8 12 -10 1 -10 -11 0 -11 -3 0 -17 10 -11
10 -14 2 -9 -7 4 -13 3 -13 -3 0 -5 6 -12 13 -14 9 -4 8 -6 -2 -6 -11 -1 -11
-4 -1 -16 10 -12 10 -15 -1 -15 -11 0 -11 -2 1 -10 13 -9 13 -10 0 -10 -13 0
-13 -1 0 -10 11 -7 11 -10 2 -10 -8 0 -10 -5 -5 -12 10 -18 12 -58 1 -52 -4 3
-8 1 -8 -5 0 -5 5 -13 10 -16 6 -4 7 -11 4 -17 -10 -16 -13 -68 -4 -63 10 6 7
-21 -3 -31 -4 -4 -1 -14 6 -22 9 -13 9 -14 0 -8 -7 4 -13 3 -13 -3 0 -5 6 -12
13 -14 9 -4 8 -6 -2 -6 -11 -1 -11 -4 -1 -16 10 -12 10 -15 -1 -15 -11 0 -11
-2 1 -10 13 -9 13 -10 0 -10 -13 0 -13 -1 0 -10 12 -8 12 -10 1 -10 -11 0 -11
-3 0 -17 8 -9 9 -14 3 -10 -6 3 -11 0 -11 -8 0 -8 4 -12 9 -9 4 3 8 0 8 -5 0
-6 -4 -11 -10 -11 -5 0 -10 -5 -10 -11 0 -5 4 -8 9 -5 5 4 8 -2 6 -11 -2 -10
-4 -18 -5 -18 -7 0 -5 -77 2 -81 4 -3 4 -14 -2 -24 -7 -13 -6 -20 3 -23 9 -4
9 -6 -1 -6 -8 -1 -10 -6 -5 -13 10 -18 12 -58 1 -52 -4 3 -8 0 -8 -5 0 -6 6
-11 13 -11 8 0 7 -4 -3 -10 -12 -8 -12 -10 -1 -10 10 0 11 -3 2 -13 -8 -10 -7
-17 1 -25 9 -9 9 -12 0 -12 -7 0 -12 -5 -12 -11 0 -5 6 -7 13 -3 8 5 8 2 -2
-9 -11 -14 -11 -17 0 -17 11 0 11 -2 -1 -10 -13 -9 -13 -10 0 -10 12 0 13 -2
1 -9 -11 -7 -11 -9 0 -14 12 -5 12 -6 0 -6 -11 -1 -11 -4 0 -18 8 -9 9 -14 3
-10 -6 3 -11 0 -11 -8 0 -8 4 -12 9 -9 4 3 8 0 8 -5 0 -6 -4 -11 -10 -11 -5 0
-10 -5 -10 -11 0 -5 4 -8 9 -5 5 4 8 -2 6 -11 -2 -10 -4 -18 -5 -18 -7 0 -5
-77 2 -81 4 -3 3 -14 -2 -25 -8 -14 -7 -19 2 -19 9 0 9 -3 -2 -10 -13 -9 -13
-10 0 -10 12 0 13 -2 1 -9 -11 -7 -11 -9 0 -14 12 -5 12 -6 0 -6 -11 -1 -11
-4 0 -18 10 -11 10 -14 2 -9 -7 4 -13 3 -13 -3 0 -5 6 -12 13 -14 9 -4 8 -6
-2 -6 -11 -1 -11 -4 -1 -16 10 -12 10 -15 -1 -15 -11 0 -11 -2 1 -10 13 -9 13
-10 0 -10 -13 0 -13 -1 0 -10 12 -8 12 -10 1 -10 -11 0 -11 -3 0 -17 10 -11
10 -14 2 -9 -7 4 -13 2 -13 -3 0 -6 6 -11 13 -11 8 0 7 -4 -3 -10 -12 -8 -12
-10 -1 -10 11 0 11 -3 0 -17 -11 -13 -11 -17 -1 -20 6 -3 12 -11 12 -20 0 -18
25 -45 34 -36 3 4 6 1 6 -6 0 -14 67 -81 75 -73 3 3 5 0 5 -7 0 -16 25 -41 41
-41 7 0 10 -3 6 -6 -8 -8 18 -34 34 -34 7 0 10 -3 6 -6 -7 -8 17 -34 32 -34 6
0 10 -6 9 -12 -2 -7 3 -12 10 -10 11 2 16 -10 13 -31 0 -4 3 -6 7 -5 12 4 62
-49 54 -57 -4 -4 -2 -6 3 -5 19 4 38 0 32 -6 -7 -8 17 -34 32 -34 6 0 11 -4
11 -9 0 -12 58 -71 71 -71 6 0 8 -7 5 -16 -3 -8 -2 -12 4 -9 6 3 10 1 10 -4 0
-6 8 -11 17 -11 9 0 14 -3 10 -6 -8 -8 18 -34 33 -34 6 0 9 -4 5 -9 -3 -5 4
-12 15 -16 11 -3 20 -11 20 -16 0 -6 -5 -7 -12 -3 -7 5 -8 3 -4 -5 5 -7 14
-10 22 -7 8 3 14 1 14 -5 0 -13 65 -78 82 -81 7 -2 16 -7 20 -13 5 -6 8 -5 8
3 0 6 9 12 21 12 13 0 18 -4 13 -12 -6 -10 -4 -10 7 0 16 15 33 16 23 0 -5 -7
-3 -8 7 -2 19 12 33 12 41 -1 5 -7 8 -6 8 1 0 12 28 12 47 1 6 -4 15 -3 18 3
5 8 12 7 23 -2 12 -10 14 -10 8 0 -8 13 19 13 39 0 6 -4 17 -3 25 3 21 12 33
11 24 -3 -5 -7 -3 -8 7 -2 19 12 33 12 41 -1 5 -6 8 -6 8 3 0 6 8 12 18 12 15
0 15 -2 2 -11 -13 -10 -13 -10 0 -6 8 3 24 9 34 13 15 6 17 4 11 -7 -7 -12 -6
-12 7 -1 11 9 18 10 23 2 4 -7 12 -7 25 0 25 13 33 13 24 -2 -6 -10 -4 -10 8
0 11 9 18 10 23 2 4 -7 12 -7 25 0 25 13 33 13 24 -2 -6 -10 -4 -10 8 0 11 9
18 10 23 2 4 -7 12 -7 25 0 25 13 33 13 24 -2 -5 -7 -3 -8 7 -2 19 11 58 13
65 2 3 -4 14 -4 24 2 25 13 33 13 24 -2 -5 -7 -3 -8 7 -2 19 12 33 12 41 -1 5
-6 8 -6 8 3 0 6 5 12 11 12 5 0 7 -6 3 -12 -6 -10 -4 -10 8 0 12 9 18 10 23 2
5 -8 11 -8 19 -1 9 7 17 7 26 -2 10 -9 11 -9 6 1 -7 13 19 13 39 0 6 -4 17 -3
25 2 9 5 20 4 29 -3 12 -9 13 -9 7 0 -5 9 0 12 17 11 22 -2 23 -5 13 -30 -7
-19 -13 -23 -18 -15 -5 8 -8 4 -8 -10 0 -13 -5 -23 -10 -23 -6 0 -24 -16 -41
-35 -18 -20 -36 -32 -43 -28 -6 4 -4 -2 4 -12 9 -11 10 -16 3 -11 -8 4 -13 2
-13 -4 0 -6 -4 -8 -10 -5 -5 3 -10 -1 -10 -9 0 -9 -7 -16 -17 -16 -9 0 -13 -3
-10 -6 3 -4 -8 -20 -26 -37 -18 -16 -31 -34 -30 -38 2 -5 -4 -6 -12 -3 -8 4
-15 2 -15 -2 0 -5 -19 -29 -42 -54 -22 -25 -37 -39 -33 -31 5 9 4 12 -3 7 -7
-4 -12 -12 -12 -17 0 -6 -7 -17 -15 -25 -8 -9 -15 -13 -15 -9 0 4 -12 -7 -26
-24 -15 -18 -31 -28 -37 -24 -7 4 -5 -2 3 -12 9 -11 10 -16 3 -11 -8 4 -13 2
-13 -4 0 -6 -4 -8 -10 -5 -5 3 -10 0 -10 -8 0 -7 -11 -20 -25 -27 -14 -7 -25
-16 -25 -19 0 -3 -10 -17 -21 -31 -11 -14 -18 -18 -14 -10 3 8 -2 4 -12 -9
-12 -17 -18 -43 -18 -82 0 -31 3 -55 8 -52 4 2 7 -3 7 -11 0 -9 -6 -16 -12
-16 -9 0 -8 -4 2 -10 11 -7 11 -10 2 -10 -8 0 -10 -5 -5 -12 11 -19 13 -39 2
-32 -5 3 -9 0 -9 -5 0 -6 -14 -11 -31 -11 -21 0 -28 4 -23 13 6 10 4 10 -7 0
-16 -15 -43 -17 -34 -3 3 6 2 10 -3 10 -9 0 -7 54 2 69 3 4 1 13 -4 21 -5 9
-5 19 1 26 7 8 6 14 -1 19 -7 4 -7 12 0 26 10 18 6 23 -13 20 -4 -1 0 10 8 23
10 15 12 26 6 30 -9 6 -9 15 1 56 1 8 -3 14 -10 12 -9 -1 -8 5 3 22 10 15 12
26 6 30 -9 6 -9 15 1 56 2 9 -3 14 -11 12 -11 -2 -12 0 -3 11 7 8 9 17 5 20
-3 4 -1 7 6 7 7 0 9 5 4 13 -11 18 -12 36 -3 42 13 8 0 36 -14 29 -6 -4 -3 1
6 11 16 17 16 19 0 32 -9 8 -11 11 -3 7 9 -4 12 -2 9 7 -4 12 -95 14 -554 16
l-549 2 -12 -24 c-6 -14 -8 -23 -3 -20 4 2 8 -20 8 -50 0 -38 -4 -53 -12 -48
-8 5 -8 3 0 -8 15 -19 16 -82 2 -73 -7 5 -8 2 -2 -7 14 -22 14 -90 0 -82 -8 5
-8 3 0 -8 15 -18 14 -142 0 -151 -8 -6 -8 -8 0 -8 8 0 12 -25 11 -75 0 -50 -4
-72 -11 -68 -7 5 -7 2 0 -8 16 -19 15 -171 0 -162 -7 5 -7 2 0 -8 7 -8 12 -45
12 -84 0 -99 1 -107 12 -100 6 3 10 -1 10 -10 0 -9 9 -19 20 -22 11 -3 17 -9
14 -14 -3 -5 0 -9 6 -9 6 0 8 -4 5 -10 -3 -5 1 -10 10 -10 8 0 19 -10 24 -22
5 -13 12 -23 17 -23 5 0 8 -3 7 -7 -2 -5 3 -8 10 -8 7 0 23 -13 35 -30 13 -16
30 -30 39 -30 9 0 14 -2 11 -5 -8 -8 53 -75 68 -75 7 0 16 -9 19 -20 3 -11 11
-20 16 -20 6 0 7 -4 4 -10 -3 -6 3 -10 15 -10 12 0 19 -4 16 -8 -3 -5 4 -14
14 -22 10 -8 17 -17 14 -22 -3 -4 4 -8 16 -8 12 0 18 -4 15 -10 -3 -6 -1 -10
5 -10 6 0 8 -5 5 -10 -4 -6 -2 -9 3 -8 11 4 92 -80 92 -96 0 -6 5 -4 10 4 5 8
10 10 10 4 0 -16 55 -74 70 -74 6 0 9 -4 6 -8 -3 -5 4 -14 14 -22 10 -8 17
-17 14 -22 -3 -4 5 -8 17 -8 12 0 19 -3 16 -6 -11 -11 34 -43 50 -37 12 5 14
3 8 -8 -6 -11 -5 -12 6 -2 17 17 32 17 23 1 -6 -10 -4 -10 7 -1 17 17 32 17
23 1 -5 -9 -2 -9 9 1 9 7 17 10 17 6 0 -4 6 -2 14 4 11 9 16 9 22 0 5 -8 3 -9
-6 -4 -9 5 -11 4 -6 -4 6 -9 11 -9 22 0 11 9 14 8 14 -2 0 -8 5 -6 13 5 12 16
14 16 26 2 7 -9 18 -12 25 -8 6 4 31 8 55 9 29 1 39 -2 30 -8 -8 -5 -9 -9 -3
-9 5 0 15 5 22 12 7 7 12 8 12 4 0 -5 6 -3 14 3 11 9 16 9 22 0 5 -8 3 -9 -6
-4 -9 5 -11 4 -6 -4 6 -9 11 -9 22 0 10 8 14 8 14 0 0 -6 5 -11 11 -11 5 0 8
4 5 9 -3 5 12 8 33 8 22 -1 38 -4 35 -8 -2 -4 0 -9 5 -11 5 -1 11 -22 14 -45
3 -28 1 -40 -6 -36 -7 4 -8 -1 -3 -13 12 -29 14 -64 5 -64 -5 0 -9 -5 -9 -11
0 -5 4 -8 8 -5 5 3 8 -5 7 -17 -2 -23 16 -47 34 -47 6 0 11 -4 11 -9 0 -5 18
-28 40 -51 22 -23 40 -46 40 -51 0 -5 3 -8 8 -8 17 3 35 -1 29 -7 -3 -3 25
-37 63 -74 38 -37 65 -72 62 -76 -4 -4 -1 -4 6 0 13 8 45 -18 35 -28 -4 -3 1
-6 10 -6 11 0 14 -5 10 -15 -3 -9 -2 -15 3 -14 20 3 35 -2 29 -10 -3 -5 4 -12
15 -16 11 -3 20 -13 20 -21 0 -8 5 -14 11 -14 5 0 7 -5 3 -12 -4 -6 -3 -9 2
-5 14 8 47 -20 38 -34 -4 -7 -3 -10 4 -5 6 3 18 -4 26 -16 9 -12 16 -19 16
-15 0 4 9 -2 20 -13 12 -12 18 -26 14 -32 -4 -7 -3 -8 5 -4 6 4 14 0 17 -8 3
-9 12 -16 19 -16 8 0 17 -5 21 -12 5 -7 3 -8 -6 -3 -9 5 -11 4 -6 -3 4 -7 14
-12 23 -12 9 0 14 -3 10 -6 -7 -8 17 -34 32 -34 6 0 7 -7 4 -17 -4 -11 -3 -14
5 -9 7 4 12 2 12 -4 0 -6 4 -8 10 -5 5 3 10 1 10 -5 0 -8 15 -11 45 -8 26 2
45 -1 45 -7 0 -7 3 -7 8 0 4 6 26 10 50 10 23 0 42 -4 42 -10 0 -7 3 -7 8 0 4
6 21 10 37 10 17 0 33 -4 37 -10 5 -7 8 -7 8 0 0 6 16 10 35 10 19 0 35 -4 35
-10 0 -7 3 -7 8 0 4 6 21 10 37 10 17 0 33 -4 37 -10 5 -6 8 -6 8 2 0 6 8 10
18 8 9 -1 16 -9 14 -16 -2 -11 1 -10 10 1 13 15 66 19 87 6 6 -4 11 -2 11 5 0
7 8 5 20 -6 15 -13 19 -14 15 -4 -4 11 3 14 29 13 19 -1 39 -5 45 -9 6 -3 11
-1 11 5 0 6 5 8 10 5 6 -4 8 -12 4 -18 -3 -7 0 -5 8 3 13 15 66 19 87 6 6 -4
11 -2 11 5 0 7 8 5 20 -6 15 -13 19 -14 15 -4 -4 11 3 14 29 13 19 -1 39 -5
45 -9 6 -3 11 -1 11 5 0 6 5 8 10 5 6 -4 8 -12 4 -18 -3 -7 0 -5 8 3 13 15 66
19 87 6 6 -4 11 -2 11 5 0 7 8 5 20 -6 15 -13 19 -14 15 -4 -4 11 3 14 31 13
20 -1 40 -8 45 -16 7 -10 9 -8 9 6 0 15 3 16 15 6 8 -7 15 -8 15 -4 0 10 63
10 79 -1 6 -3 11 -1 11 6 0 8 4 8 15 -1 8 -7 15 -8 15 -4 0 10 63 10 79 -1 6
-3 11 -1 11 6 0 8 4 8 15 -1 8 -7 15 -8 15 -4 0 10 63 10 79 -1 6 -3 11 -1 11
6 0 8 4 8 15 -1 8 -7 15 -8 15 -4 0 10 63 10 79 -1 6 -3 11 -1 11 6 0 8 4 8
15 -1 12 -10 15 -10 15 1 0 12 2 12 9 0 7 -11 9 -11 14 0 4 12 7 11 16 -1 6
-8 11 -10 12 -5 0 6 5 -3 9 -19 7 -23 5 -32 -8 -43 -9 -8 -12 -12 -6 -9 14 7
26 -31 14 -39 -9 -5 -5 -43 5 -53 2 -3 -3 -11 -13 -19 -9 -8 -12 -12 -6 -9 14
7 26 -31 14 -39 -5 -3 -7 -15 -4 -28 10 -45 10 -107 -1 -107 -5 0 -3 -5 5 -10
13 -8 13 -10 1 -10 -12 0 -12 -3 -3 -12 9 -9 7 -15 -6 -25 -9 -8 -12 -12 -6
-9 14 7 26 -31 14 -39 -5 -3 -7 -15 -4 -28 10 -45 10 -107 -1 -107 -5 0 -3 -5
5 -10 12 -8 12 -10 1 -10 -11 0 -11 -3 -1 -15 9 -11 9 -15 1 -15 -7 0 -10 -4
-7 -8 11 -18 14 -62 5 -68 -5 -3 -7 -9 -5 -13 14 -22 13 -61 -2 -73 -12 -10
-14 -10 -8 0 4 6 2 12 -3 12 -6 0 -11 -5 -11 -10 0 -7 -6 -8 -17 -1 -12 6 -20
5 -29 -6 -9 -13 -13 -13 -19 -3 -6 9 -4 11 6 5 8 -5 11 -4 6 0 -10 11 -48 14
-41 3 3 -4 0 -8 -5 -8 -6 0 -11 6 -11 13 0 9 -2 9 -8 0 -5 -7 -13 -9 -22 -3
-9 6 -18 3 -25 -7 -10 -13 -14 -13 -20 -3 -6 9 -4 11 6 5 8 -5 10 -4 6 0 -11
13 -37 15 -37 3 0 -6 -7 -4 -17 3 -11 10 -14 10 -9 2 4 -7 3 -13 -3 -13 -5 0
-12 4 -16 10 -4 6 -15 6 -30 0 -18 -7 -25 -6 -25 3 0 9 -2 9 -8 0 -5 -7 -13
-9 -22 -3 -9 6 -18 3 -25 -7 -10 -13 -14 -13 -20 -3 -6 9 -4 11 6 5 8 -5 11
-4 6 0 -10 11 -48 14 -41 3 3 -4 0 -8 -5 -8 -6 0 -11 6 -11 13 0 9 -2 9 -8 0
-5 -7 -13 -9 -22 -3 -9 6 -18 3 -25 -7 -10 -13 -14 -13 -20 -3 -6 9 -4 11 6 5
8 -5 10 -4 6 0 -11 13 -37 15 -37 3 0 -6 -7 -4 -17 3 -11 10 -14 10 -9 2 4 -7
3 -13 -3 -13 -5 0 -12 4 -16 10 -4 6 -15 6 -30 0 -18 -7 -25 -6 -25 3 0 9 -2
9 -8 0 -5 -7 -13 -9 -22 -3 -9 6 -18 3 -25 -7 -10 -13 -14 -13 -20 -3 -6 9 -4
11 6 5 8 -5 11 -4 6 0 -10 11 -48 14 -41 3 3 -4 0 -8 -5 -8 -6 0 -11 6 -11 13
0 9 -2 9 -8 0 -5 -7 -13 -9 -22 -3 -9 6 -18 3 -25 -7 -10 -13 -14 -13 -20 -3
-6 9 -4 11 6 5 8 -5 10 -4 6 0 -11 13 -37 15 -37 3 0 -6 -7 -4 -17 3 -11 10
-14 10 -9 2 4 -7 3 -13 -3 -13 -5 0 -12 4 -16 10 -4 6 -15 6 -30 0 -18 -7 -25
-6 -25 3 0 9 -2 9 -8 0 -5 -7 -13 -9 -22 -3 -9 6 -18 3 -25 -7 -10 -13 -14
-13 -20 -3 -6 9 -4 11 6 5 8 -5 11 -4 6 0 -10 11 -48 14 -41 3 3 -4 0 -8 -5
-8 -6 0 -11 6 -11 13 0 9 -2 9 -8 0 -5 -7 -13 -9 -22 -3 -9 6 -18 3 -25 -7
-10 -13 -14 -13 -20 -3 -6 9 -4 11 6 5 8 -5 10 -4 6 0 -11 13 -37 15 -37 3 0
-6 -7 -4 -17 3 -11 10 -14 10 -9 2 8 -14 -6 -18 -17 -6 -9 8 -57 11 -52 2 3
-3 -8 -5 -22 -4 -32 1 -38 16 -24 56 6 18 6 27 1 24 -6 -4 -10 -1 -10 4 0 6 6
11 13 11 9 0 9 2 -1 9 -15 9 -13 62 3 73 6 5 6 8 -1 8 -7 0 -12 23 -12 60 -1
42 3 58 10 54 7 -5 8 -2 2 7 -11 19 -17 62 -7 56 4 -3 8 5 8 18 0 13 -3 21 -7
18 -13 -7 -9 12 5 26 6 8 7 11 1 8 -8 -4 -11 13 -12 54 -1 41 3 57 10 53 7 -5
8 -2 2 7 -4 8 -9 32 -9 53 0 24 -5 41 -14 44 -8 3 -11 0 -7 -6 7 -12 -20 -10
-31 3 -4 4 -2 5 6 0 10 -6 12 -4 7 4 -6 9 -11 9 -22 0 -11 -9 -14 -9 -14 0 0
7 -5 9 -10 6 -6 -4 -7 -12 -3 -18 3 -7 -4 -3 -17 8 -13 11 -20 14 -16 8 9 -17
-6 -17 -23 -1 -11 11 -13 10 -7 0 6 -9 0 -11 -24 -7 -22 4 -29 2 -25 -6 4 -6
-5 -3 -21 7 -15 11 -25 13 -21 7 10 -16 2 -16 -25 -2 -12 6 -18 7 -14 1 3 -5
-1 -13 -10 -16 -24 -9 -31 -7 -14 4 12 8 10 10 -11 10 -14 0 -30 -5 -36 -11
-8 -8 -13 -7 -18 2 -6 8 -4 10 5 4 9 -5 11 -4 6 4 -6 9 -11 9 -22 0 -11 -9
-14 -9 -14 0 0 7 -5 9 -10 6 -6 -4 -7 -12 -3 -18 3 -7 -4 -3 -17 8 -13 11 -20
14 -16 8 4 -7 3 -13 -1 -13 -5 0 -15 6 -22 13 -11 10 -13 9 -7 -1 6 -9 0 -11
-24 -7 -22 4 -29 2 -25 -6 4 -6 -5 -3 -21 7 -19 13 -25 14 -19 5 6 -11 4 -13
-7 -8 -9 3 -20 1 -26 -5 -6 -6 -12 -6 -17 3 -6 8 -4 10 5 4 9 -5 11 -4 6 4 -6
9 -11 9 -22 0 -11 -9 -14 -9 -14 0 0 7 -5 9 -10 6 -6 -4 -8 -11 -5 -16 3 -5
-1 -6 -9 -3 -9 3 -13 11 -9 18 3 6 -4 2 -16 -9 -22 -19 -23 -19 -37 0 -8 10
-14 14 -14 8 0 -16 -28 -24 -36 -11 -5 7 -2 8 6 3 9 -5 11 -4 6 4 -6 9 -11 9
-22 0 -11 -9 -14 -9 -14 0 0 7 -5 9 -10 6 -6 -4 -8 -10 -6 -14 3 -4 -1 -8 -9
-8 -8 0 -12 4 -9 8 7 12 -109 7 -125 -5 -12 -9 -13 -8 -8 7 5 12 3 16 -5 11
-15 -10 -57 -11 -90 -3 -30 8 -66 -21 -52 -42 4 -8 3 -10 -4 -5 -16 10 -15 -7
1 -23 6 -8 8 -11 2 -8 -6 3 -8 -21 -5 -69 3 -41 1 -74 -4 -74 -5 0 -3 -7 4
-15 10 -12 10 -15 -1 -15 -11 0 -11 -2 1 -10 13 -9 13 -10 0 -10 -12 -1 -11
-3 3 -11 14 -8 16 -14 6 -25 -6 -7 -9 -27 -7 -44 3 -16 1 -30 -4 -30 -4 0 -8
-5 -8 -11 0 -5 6 -7 13 -3 7 5 6 0 -3 -11 -9 -11 -10 -16 -2 -11 7 4 12 1 12
-9 0 -9 -4 -14 -9 -11 -8 5 -6 -42 3 -86 2 -10 -1 -18 -6 -18 -6 0 -5 -6 2
-15 10 -12 10 -15 -1 -15 -11 0 -11 -2 1 -10 13 -9 13 -10 0 -10 -12 -1 -11
-3 3 -11 14 -8 16 -14 6 -25 -6 -7 -9 -27 -7 -44 3 -16 1 -30 -4 -30 -4 0 -8
-5 -8 -11 0 -5 6 -7 13 -3 7 5 6 0 -3 -11 -9 -11 -10 -16 -2 -11 7 4 12 1 12
-9 0 -9 -4 -14 -9 -11 -8 5 -6 -42 3 -86 2 -10 0 -18 -5 -18 -5 0 -9 -5 -9
-11 0 -5 3 -8 8 -6 4 3 5 -17 3 -45 -2 -39 1 -53 15 -64 11 -9 12 -12 4 -8 -8
4 15 -21 52 -56 38 -35 65 -67 61 -74 -3 -6 -3 -8 2 -4 4 4 15 -1 24 -10 9
-10 14 -13 11 -7 -3 6 3 2 12 -8 10 -11 15 -24 11 -30 -3 -6 -1 -7 5 -3 7 4
12 2 12 -4 0 -6 5 -8 10 -5 6 3 10 2 10 -3 0 -5 15 -24 34 -43 19 -18 32 -37
30 -41 -3 -4 1 -5 9 -2 8 3 18 0 23 -7 5 -8 3 -10 -7 -5 -8 4 -5 0 5 -8 11 -9
24 -16 29 -16 4 0 6 -4 3 -8 -2 -4 8 -17 24 -27 16 -11 35 -30 41 -42 7 -13
16 -23 21 -23 16 0 40 -29 33 -40 -3 -6 1 -7 9 -4 10 4 16 1 16 -7 0 -8 16
-25 34 -39 19 -14 33 -27 32 -30 -1 -3 9 -16 22 -30 14 -14 22 -18 18 -10 -4
8 3 2 16 -14 13 -17 39 -45 58 -63 l35 -33 1085 1 c597 0 1079 3 1071 6 -10 4
-3 12 20 24 19 10 27 18 19 19 -8 0 0 8 18 17 19 9 29 19 22 23 -6 4 0 11 15
18 16 7 23 17 19 24 -5 8 -2 9 10 5 13 -5 17 -3 13 7 -3 8 5 18 19 25 15 7 22
16 18 23 -4 6 -3 8 2 5 6 -3 16 -2 24 4 13 7 13 9 0 9 -8 1 -2 8 13 16 16 9
25 20 21 26 -5 7 -2 9 9 5 9 -3 19 -2 22 3 3 4 -1 11 -7 13 -10 4 -10 6 0 6 8
1 35 24 62 51 27 28 54 50 62 50 10 0 9 3 -2 10 -12 8 -12 10 -1 10 7 0 48 35
89 78 42 42 81 76 85 74 5 -2 7 4 4 12 -4 9 -3 15 2 13 4 -1 31 22 58 51 28
28 57 52 64 52 11 0 11 2 -1 10 -13 8 -12 10 4 10 11 0 16 3 13 7 -4 3 -2 13
5 20 9 11 9 16 -1 23 -11 6 -11 9 0 13 11 4 11 6 0 6 -11 1 -10 5 5 16 18 14
18 15 0 9 -16 -6 -17 -4 -7 14 13 25 14 35 2 27 -10 -6 -6 33 4 43 2 3 0 11
-6 19 -9 9 -8 13 0 13 6 0 11 5 11 11 0 5 -4 8 -9 5 -5 -4 -8 2 -6 11 2 10 4
18 5 18 7 0 5 77 -2 81 -4 3 -4 14 2 24 7 13 6 20 -3 23 -9 4 -9 6 1 6 8 1 10
6 5 14 -10 17 -12 57 -1 51 4 -3 8 0 8 5 0 6 -6 11 -12 11 -9 0 -8 4 2 10 12
8 12 10 1 10 -10 0 -11 3 -2 13 8 10 7 17 -1 25 -9 9 -9 12 0 12 7 0 12 5 12
11 0 5 -6 7 -12 3 -9 -5 -9 -2 1 9 11 14 11 17 0 17 -11 0 -11 2 1 10 13 9 13
10 0 10 -12 0 -13 2 -1 9 11 7 11 9 0 14 -12 5 -12 6 0 6 11 1 11 4 0 18 -8 9
-9 14 -3 10 6 -3 11 0 11 8 0 8 -4 12 -9 9 -4 -3 -8 0 -8 5 0 6 5 11 10 11 6
0 10 5 10 11 0 5 -4 8 -9 5 -5 -4 -8 2 -6 11 2 10 4 18 5 18 7 0 5 77 -2 81
-4 3 -3 14 2 25 8 14 7 19 -2 19 -9 0 -9 3 2 10 13 9 13 10 0 10 -12 0 -13 2
-1 9 11 7 11 9 0 14 -12 5 -12 6 0 6 11 1 11 4 0 18 -10 11 -10 14 -1 9 6 -4
12 -3 12 3 0 5 -6 12 -12 14 -10 4 -9 6 1 6 11 1 11 4 1 16 -9 10 -9 15 -1 15
6 0 11 5 11 11 0 5 -4 8 -9 5 -13 -9 -7 19 8 38 12 14 12 16 -1 11 -9 -4 -15
0 -15 10 0 8 4 15 9 15 4 0 8 5 8 11 0 5 -4 8 -9 4 -10 -6 -6 33 4 43 2 3 0
11 -6 19 -9 9 -8 13 0 13 6 0 11 5 11 11 0 5 -4 8 -9 5 -5 -4 -8 2 -6 11 2 10
4 18 5 18 7 0 5 77 -2 81 -4 3 -4 14 2 24 7 13 6 20 -3 23 -9 4 -9 6 1 6 8 1
10 6 5 14 -10 17 -12 57 -1 51 4 -3 8 0 8 5 0 6 -6 11 -12 11 -9 0 -8 4 2 10
12 8 12 10 1 10 -11 0 -11 3 -1 15 10 12 10 15 0 15 -9 0 -9 4 1 17 10 11 10
14 2 9 -8 -4 -13 -2 -13 4 0 7 -11 21 -25 32 -14 11 -22 24 -19 30 4 7 2 8 -4
4 -7 -4 -12 -2 -12 3 0 6 -7 11 -16 11 -8 0 -13 3 -11 8 6 9 -19 33 -27 25 -3
-4 -6 -1 -6 6 0 15 -45 61 -60 61 -5 0 -10 4 -10 10 0 5 -11 20 -24 33 -14 14
-22 28 -18 33 4 4 1 4 -6 0 -7 -4 -15 -1 -18 8 -3 9 -13 16 -22 16 -8 0 -12 3
-9 7 4 3 -6 19 -22 34 -16 15 -26 30 -23 34 4 3 -1 3 -11 -1 -10 -3 -17 -1
-17 6 0 15 -25 40 -41 40 -7 0 -9 3 -6 6 10 10 -34 45 -46 37 -5 -3 -7 -1 -4
4 7 11 -46 73 -62 73 -5 0 -13 9 -16 20 -3 11 -13 20 -21 20 -8 0 -13 3 -11 8
5 9 -60 71 -68 64 -3 -3 -5 0 -5 7 0 18 -47 61 -67 61 -15 0 -16 2 -3 10 9 6
10 10 3 10 -6 0 -14 -4 -17 -8 -6 -10 -36 -9 -53 1 -7 5 -21 3 -32 -3 -26 -13
-34 -13 -25 3 6 9 4 9 -7 1 -16 -12 -29 -12 -48 0 -10 6 -12 5 -7 -2 10 -16
-7 -15 -23 1 -11 10 -13 10 -7 0 5 -9 0 -13 -13 -13 -10 0 -22 6 -24 13 -4 9
-6 9 -6 0 -1 -7 -13 -13 -27 -13 -16 0 -23 4 -18 11 5 8 1 8 -13 0 -14 -7 -24
-7 -33 2 -10 9 -11 9 -6 0 9 -17 -6 -17 -23 0 -11 9 -13 9 -7 0 9 -17 -6 -17
-23 0 -11 10 -13 10 -7 0 5 -8 1 -13 -9 -13 -10 0 -14 5 -9 13 6 9 4 9 -7 -1
-16 -15 -33 -16 -23 0 5 7 3 8 -7 2 -21 -12 -59 -13 -59 0 0 6 -4 5 -9 -3 -6
-9 -11 -10 -15 -2 -5 8 -13 8 -26 1 -25 -13 -33 -13 -24 3 5 7 0 6 -11 -3 -10
-8 -19 -15 -20 -15 -1 0 -10 7 -20 15 -11 9 -16 10 -11 3 4 -7 3 -13 -1 -13
-5 0 -15 6 -22 13 -11 10 -13 10 -7 0 5 -8 1 -13 -9 -13 -10 0 -13 5 -9 13 6
9 5 9 -7 0 -12 -10 -18 -10 -29 0 -10 9 -11 9 -6 0 9 -17 -6 -17 -23 0 -8 6
-11 7 -8 1 4 -7 -5 -11 -23 -11 -18 0 -27 4 -23 11 3 6 0 5 -8 -2 -16 -15 -33
-16 -23 -1 5 8 1 8 -13 0 -14 -7 -24 -7 -33 2 -10 9 -11 9 -6 0 9 -17 -6 -17
-23 0 -11 9 -13 9 -7 0 4 -7 3 -13 -1 -13 -5 0 -15 6 -22 13 -11 10 -13 10 -7
0 5 -8 1 -13 -9 -13 -10 0 -14 5 -9 12 6 11 4 10 -7 0 -17 -16 -32 -16 -23 1
5 8 2 8 -9 -2 -14 -11 -17 -11 -17 0 0 9 -3 10 -8 3 -9 -13 -42 -14 -42 -1 0
5 7 6 16 3 8 -3 12 -2 9 4 -3 5 3 18 14 29 11 11 17 22 13 25 -3 3 1 6 10 6 8
0 20 11 28 24 8 16 18 22 29 19 9 -4 13 -3 9 2 -9 9 92 111 106 107 5 -2 6 4
3 13 -4 8 -2 15 4 15 15 0 39 26 32 34 -4 3 1 6 10 6 9 0 17 7 17 16 0 8 5 12
10 9 6 -3 10 -1 10 5 0 6 4 9 9 6 9 -6 26 22 23 37 -1 4 3 7 9 7 16 0 39 26
31 35 -4 5 -2 5 4 2 13 -7 47 26 37 36 -3 4 1 7 10 7 9 0 17 5 17 11 0 5 5 7
10 4 6 -3 10 -2 10 4 0 6 26 37 58 70 l59 60 0 83 c1 121 5 149 19 137 8 -7
14 -6 17 3 4 10 6 10 6 1 1 -7 9 -13 19 -13 14 0 15 2 2 10 -12 8 -11 10 5 7
39 -5 43 -15 43 -109 0 -51 2 -102 5 -113 2 -11 1 -34 -4 -52 -4 -18 -4 -35 0
-37 7 -5 7 -66 0 -82 -2 -5 -3 -38 -1 -74 1 -36 3 -76 3 -90 1 -14 -1 -40 -4
-57 -3 -18 0 -36 5 -39 7 -4 8 -2 4 4 -10 16 26 15 43 0 11 -10 13 -10 7 0
-10 16 26 16 43 0 11 -10 13 -10 7 -1 -4 7 -3 13 3 13 5 0 12 -6 14 -12 4 -10
6 -10 6 0 1 6 9 12 19 12 14 0 15 -2 2 -10 -9 -6 -10 -10 -3 -10 6 0 15 5 19
11 4 8 9 7 15 -2 7 -11 9 -11 9 1 0 13 1 13 10 0 6 -10 10 -11 10 -2 0 6 7 12
16 12 8 0 13 -4 10 -9 -7 -10 20 -9 30 2 4 4 14 1 22 -6 13 -9 14 -9 8 1 -10
16 25 16 43 -1 11 -9 13 -9 7 1 -4 6 -3 12 3 12 5 0 12 -6 14 -12 4 -10 6 -10
6 0 1 6 9 12 19 12 14 0 15 -2 2 -10 -9 -6 -10 -10 -3 -10 6 0 15 5 19 11 4 8
9 7 15 -2 7 -11 9 -11 9 1 0 13 1 13 10 0 6 -10 10 -11 10 -2 0 6 7 12 16 12
8 0 13 -4 10 -9 -7 -10 20 -9 30 2 4 4 14 1 22 -6 13 -9 14 -9 8 1 -10 16 25
16 43 -1 11 -9 13 -9 7 1 -4 6 -3 12 3 12 5 0 12 -6 14 -12 4 -10 6 -10 6 0 1
6 10 12 22 12 11 0 18 -4 15 -8 -2 -4 6 -8 19 -8 13 0 22 3 20 7 -3 3 6 6 20
6 14 0 23 -3 20 -6 -2 -4 7 -7 20 -7 13 0 22 3 20 7 -3 3 6 7 20 7 14 -1 23
-4 20 -7 -2 -4 7 -7 20 -7 13 0 22 3 20 7 -3 3 6 6 20 6 14 0 23 -3 20 -6 -2
-4 7 -7 20 -7 13 0 22 3 20 6 -2 4 9 7 25 7 18 0 27 -4 23 -11 -3 -6 0 -5 8 2
15 14 33 16 25 3 -7 -10 20 -9 30 2 12 12 26 8 18 -5 -6 -10 -4 -10 7 -1 17
17 32 17 24 1 -4 -7 2 -2 13 12 15 18 18 28 10 37 -7 9 -7 13 1 13 6 0 11 5
11 11 0 5 -6 7 -12 3 -9 -5 -9 -2 1 9 11 14 11 17 0 17 -11 0 -11 2 1 10 13 9
13 10 0 10 -12 0 -13 2 -1 9 11 7 11 9 0 14 -12 5 -12 6 0 6 11 1 11 4 0 18
-8 9 -9 14 -3 10 6 -3 11 0 11 8 0 8 -4 12 -9 9 -4 -3 -8 0 -8 5 0 6 5 11 10
11 6 0 10 5 10 11 0 5 -4 8 -9 5 -5 -4 -8 2 -6 11 2 10 4 18 5 18 7 0 5 77 -2
81 -4 3 -3 14 2 25 8 14 7 19 -2 19 -9 0 -9 3 2 10 13 9 13 10 0 10 -12 0 -13
2 -1 9 11 7 11 9 0 14 -12 5 -12 6 0 6 11 1 11 4 0 18 -10 11 -10 14 -1 9 6
-4 12 -3 12 3 0 5 -6 12 -12 14 -10 4 -9 6 1 6 11 1 11 4 1 16 -9 10 -9 15 -1
15 6 0 11 5 11 11 0 5 -4 8 -9 5 -13 -9 -7 19 8 38 12 14 12 16 -1 11 -9 -4
-15 0 -15 10 0 8 4 15 9 15 4 0 8 5 8 11 0 5 -4 8 -8 5 -10 -6 -8 57 2 73 4 6
1 11 -6 11 -9 0 -9 3 2 10 13 9 13 10 0 10 -12 0 -13 2 -1 9 11 7 11 9 0 14
-12 5 -12 6 0 6 11 1 11 4 0 18 -10 11 -10 14 -1 9 6 -4 12 -3 12 3 0 5 -6 12
-12 14 -10 4 -9 6 1 6 11 1 11 4 1 16 -10 12 -10 15 1 15 11 0 11 2 -1 10 -13
9 -13 10 0 10 13 0 13 1 0 10 -12 8 -12 10 -1 10 11 0 11 3 0 17 -10 11 -10
14 -1 9 6 -4 12 -2 12 3 0 6 -6 11 -12 11 -9 0 -8 4 2 10 12 8 12 10 1 10 -11
0 -11 3 0 17 11 13 11 17 2 20 -7 3 -13 14 -13 26 0 18 -2 19 -10 7 -8 -13
-10 -12 -10 3 0 10 -4 15 -10 12 -6 -3 -10 1 -10 10 0 9 -4 13 -10 10 -5 -3
-10 -2 -10 4 0 13 -96 111 -109 111 -6 0 -10 6 -8 13 1 6 -4 11 -10 10 -7 -2
-13 1 -13 5 0 14 -36 52 -49 52 -7 0 -9 4 -6 10 3 6 1 10 -5 10 -6 0 -8 5 -5
10 3 6 -3 10 -14 10 -12 0 -20 3 -19 8 4 11 -99 112 -114 112 -9 0 -9 3 2 10
13 8 13 10 -2 10 -10 0 -27 14 -40 30 -12 17 -28 30 -35 30 -7 0 -12 6 -10 13
1 6 -3 11 -10 10 -6 -2 -15 6 -18 17 -4 11 -11 20 -16 20 -6 0 -7 5 -4 10 3 6
-1 10 -10 10 -9 0 -13 5 -10 10 3 6 -2 10 -11 10 -10 0 -15 3 -11 6 8 8 -18
34 -34 34 -7 0 -10 3 -7 6 7 6 -39 54 -52 54 -4 0 -10 5 -12 11 -2 5 -18 11
-35 11 -21 1 -30 5 -26 12 4 6 0 6 -8 -1 -12 -10 -18 -10 -29 0 -10 9 -11 9
-6 0 5 -8 1 -13 -9 -13 -10 0 -13 5 -9 12 5 7 3 8 -7 2 -19 -11 -51 -16 -45
-6 2 4 -6 8 -19 8 -13 0 -21 -4 -19 -8 3 -5 10 -5 16 -2 7 4 8 2 4 -5 -4 -6
-12 -8 -19 -4 -6 4 -23 7 -37 8 -14 1 -32 5 -39 10 -10 5 -12 4 -7 -3 10 -16
-26 -15 -43 1 -11 10 -13 10 -7 0 5 -8 1 -13 -9 -13 -10 0 -13 5 -9 12 5 7 3
8 -7 2 -19 -12 -51 -16 -45 -6 3 5 -1 9 -9 9 -8 0 -12 -4 -9 -8 3 -5 -11 -8
-30 -7 -22 1 -33 5 -29 12 3 6 0 5 -8 -1 -13 -13 -38 -19 -26 -7 3 4 2 15 -4
25 -7 14 -6 19 3 19 9 0 9 3 -2 10 -13 9 -13 10 0 10 12 1 11 3 -3 11 -14 8
-16 14 -6 25 6 7 9 27 7 44 -3 17 0 30 6 30 6 0 4 5 -4 10 -9 6 -11 10 -3 10
8 0 10 7 6 17 -9 24 -110 123 -117 116 -3 -4 -6 -1 -6 5 0 16 -146 163 -154
155 -3 -4 -6 -1 -6 6 0 19 -28 43 -41 35 -7 -4 -9 -3 -6 3 7 11 -28 53 -44 53
-6 0 -7 5 -3 12 5 7 2 9 -9 5 -11 -4 -14 -2 -10 8 3 8 -2 18 -11 21 -9 3 -13
11 -9 17 3 6 1 7 -6 3 -12 -8 -44 18 -34 28 4 3 -1 6 -11 6 -9 0 -15 4 -12 9
3 5 -2 15 -11 22 -14 12 -16 12 -8 0 5 -10 4 -12 -3 -7 -7 4 -12 13 -12 21 0
7 -9 16 -19 20 -11 3 -23 15 -26 25 -3 10 -15 22 -25 25 -10 3 -22 15 -25 26
-4 10 -13 19 -21 19 -8 0 -19 10 -24 23 -5 12 -9 19 -9 15 -1 -4 -11 3 -24 15
-13 12 -22 25 -20 28 1 4 -6 9 -17 12 -11 3 -20 0 -20 -5 0 -6 -8 -4 -17 3
-11 10 -14 10 -9 2 9 -16 5 -16 -28 -3 -18 7 -26 6 -26 -1 0 -7 -6 -6 -17 2
-11 10 -14 10 -9 2 9 -16 5 -16 -28 -3 -18 7 -26 6 -26 -1 0 -7 -6 -6 -17 2
-11 10 -14 10 -9 2 9 -16 5 -16 -28 -3 -18 7 -26 6 -26 -1 0 -7 -6 -6 -17 2
-11 10 -14 10 -9 2 9 -16 5 -16 -28 -3 -18 7 -26 6 -26 -1 0 -7 -6 -6 -17 2
-11 10 -14 10 -9 2 9 -16 5 -16 -28 -3 -19 7 -26 6 -26 -2 0 -9 -3 -9 -11 -1
-7 7 -21 8 -40 3 -20 -6 -29 -5 -29 3 0 8 -3 8 -8 2 -4 -5 -20 -10 -37 -10
-16 0 -33 5 -37 10 -5 6 -8 6 -8 -2 0 -6 -8 -10 -17 -8 -10 1 -17 9 -15 16 1
9 -2 8 -11 -3 -11 -14 -16 -15 -27 -5 -10 9 -11 9 -6 0 4 -7 2 -13 -3 -13 -6
0 -11 4 -11 9 0 6 -12 6 -30 1 -21 -6 -30 -5 -30 3 0 8 -3 8 -8 2 -4 -5 -20
-10 -37 -10 -16 0 -33 5 -37 10 -5 6 -8 6 -8 -2 0 -6 -8 -10 -17 -8 -10 1 -17
9 -15 16 1 9 -2 8 -11 -3 -11 -14 -16 -15 -27 -5 -10 9 -11 9 -6 0 4 -7 2 -13
-3 -13 -6 0 -11 4 -11 9 0 6 -12 6 -30 1 -21 -6 -30 -5 -30 3 0 8 -3 8 -8 2
-4 -5 -20 -10 -37 -10 -16 0 -33 5 -37 10 -5 7 -8 7 -8 0 0 -5 -16 -10 -35
-10 -19 0 -35 5 -35 10 0 7 -3 7 -8 0 -4 -5 -20 -10 -37 -10 -16 0 -33 5 -37
10 -5 6 -8 6 -8 -2 0 -6 -8 -10 -17 -8 -10 1 -17 9 -15 16 1 9 -2 8 -11 -3
-11 -14 -16 -15 -27 -5 -10 9 -11 9 -6 0 4 -7 2 -13 -3 -13 -6 0 -11 4 -11 9
0 6 -12 6 -30 1 -21 -6 -30 -5 -30 3 0 8 -3 8 -8 2 -4 -5 -20 -10 -37 -10 -16
0 -33 5 -37 10 -5 6 -8 6 -8 -2 0 -6 -8 -10 -17 -8 -10 1 -17 9 -15 16 1 9 -2
8 -11 -3 -11 -14 -16 -15 -27 -5 -10 9 -11 9 -6 0 4 -7 2 -13 -3 -13 -6 0 -11
4 -11 9 0 6 -12 6 -30 1 -21 -6 -30 -5 -30 3 0 8 -3 8 -8 2 -8 -12 -92 -14
-92 -2 0 5 -4 6 -9 3 -5 -3 -11 7 -14 22 -3 15 -1 28 3 30 5 2 5 15 0 28 -8
19 -7 23 3 18 9 -6 9 -4 2 7 -12 15 -13 74 -3 85 4 3 3 17 -2 30 -7 17 -6 24
3 24 8 0 7 4 -3 10 -13 8 -12 10 4 10 20 0 20 0 0 15 -10 8 -13 15 -7 15 9 0
10 7 3 26 -8 19 -7 23 3 18 9 -6 9 -4 2 7 -12 15 -13 74 -3 85 4 3 3 17 -2 30
-7 17 -6 24 3 24 8 0 7 4 -3 10 -13 8 -12 10 4 10 20 0 20 0 0 15 -10 8 -13
15 -7 15 9 0 10 7 3 26 -6 14 -6 23 -2 20 4 -2 8 15 7 39 0 24 -2 42 -5 40 -3
-2 -5 12 -5 31 0 19 5 34 10 34 6 0 3 5 -5 10 -12 8 -12 10 -1 10 11 0 11 3 1
15 -8 10 -9 15 -2 15 6 0 9 7 6 15 -4 8 -1 15 5 15 6 0 11 8 11 17 0 15 2 14
15 -3 10 -13 14 -14 15 -5 0 11 3 11 15 1 10 -9 15 -9 15 -1 0 6 5 11 11 11 5
0 8 -4 5 -8 -2 -4 11 -7 30 -7 21 0 34 5 34 13 0 7 5 10 10 7 6 -4 8 -11 5
-16 -4 -5 5 -5 20 1 32 12 38 12 31 2 -3 -5 10 -8 29 -8 18 0 31 4 29 8 -8 13
11 9 24 -4 9 -9 12 -9 12 2 0 13 2 13 10 0 8 -13 10 -12 10 4 0 20 0 20 15 0
10 -13 14 -14 15 -5 0 11 3 11 15 1 10 -9 15 -9 15 -1 0 6 5 11 11 11 5 0 8
-4 5 -8 -2 -4 11 -7 30 -7 21 0 34 5 34 13 0 7 5 10 10 7 6 -4 8 -11 5 -16 -4
-5 5 -5 20 1 32 12 38 12 31 2 -3 -5 10 -8 29 -8 18 0 31 4 29 8 -8 13 11 9
24 -4 9 -9 12 -9 12 3 0 12 2 12 10 -1 8 -13 10 -12 10 4 0 20 0 20 15 0 10
-13 14 -14 15 -5 0 11 3 11 15 1 10 -9 15 -9 15 -1 0 6 5 11 11 11 5 0 8 -4 5
-8 -2 -4 11 -7 30 -7 21 0 34 5 34 13 0 7 5 10 10 7 6 -4 8 -11 5 -16 -4 -5 5
-5 20 1 32 12 38 12 31 2 -3 -5 10 -8 29 -8 18 0 31 4 29 8 -8 13 11 9 24 -4
9 -9 12 -9 12 3 0 12 2 12 10 -1 8 -13 10 -12 10 4 0 20 0 20 15 0 10 -13 14
-14 15 -5 0 11 3 11 15 1 10 -9 15 -9 15 -1 0 6 5 11 11 11 5 0 8 -4 5 -8 -2
-4 11 -7 30 -7 21 0 34 5 34 13 0 7 5 10 10 7 6 -4 8 -11 5 -16 -4 -5 5 -5 20
1 32 12 38 12 31 2 -3 -5 10 -8 29 -8 18 0 31 4 29 8 -3 5 -1 8 5 8 5 0 13 -5
17 -11 4 -8 9 -7 15 2 8 12 10 12 18 0 6 -9 10 -10 12 -2 3 8 11 7 24 -4 11
-9 13 -13 5 -9 -12 6 -13 4 -2 -7 13 -14 17 -63 5 -56 -5 3 -8 -5 -8 -18 0
-13 3 -21 8 -18 12 7 8 -12 -5 -26 -11 -11 -10 -12 0 -7 9 6 12 -1 9 -26 -2
-19 -7 -40 -12 -47 -5 -9 -4 -12 2 -8 6 4 10 -16 11 -54 1 -41 -3 -57 -10 -53
-7 5 -8 2 -2 -7 11 -19 17 -62 7 -56 -4 3 -8 -5 -8 -18 0 -13 3 -21 8 -18 12
7 8 -12 -5 -26 -7 -8 -8 -11 -2 -8 8 4 11 -13 12 -54 1 -43 -2 -58 -11 -53 -9
5 -9 4 0 -6 6 -7 9 -19 6 -26 -3 -8 0 -14 6 -14 6 0 11 -5 11 -11 0 -5 -5 -7
-12 -3 -7 5 -8 3 -3 -5 5 -9 11 -9 17 -3 6 6 17 8 25 5 8 -3 19 0 24 8 5 8 9
9 9 3 0 -12 98 -14 117 -1 6 4 15 2 19 -4 5 -8 3 -9 -6 -4 -9 6 -11 4 -5 -4 5
-9 11 -9 17 -3 7 7 19 7 35 1 16 -6 22 -5 18 1 -8 13 8 13 22 -1 8 -8 13 -7
18 2 6 8 4 10 -5 4 -8 -5 -11 -4 -6 3 9 15 38 3 29 -12 -4 -8 -2 -8 7 1 7 6
19 9 27 6 8 -3 19 0 24 8 5 8 9 9 9 3 0 -12 98 -14 117 -1 6 4 15 2 19 -4 5
-8 3 -9 -6 -4 -9 5 -11 4 -6 -4 5 -7 13 -8 19 -4 7 5 28 8 47 7 19 -1 38 3 42
9 5 8 8 9 8 1 0 -15 150 -15 150 0 0 6 5 4 10 -4 5 -8 10 -11 10 -7 0 4 10 3
21 -4 17 -9 20 -8 14 2 -6 8 -4 11 7 6 9 -3 21 0 28 6 10 9 12 8 7 -6 -6 -15
-4 -16 13 -7 14 8 20 8 20 0 0 -6 5 -8 10 -5 6 4 7 11 4 17 -5 7 -2 8 7 2 8
-5 30 -10 50 -10 20 -1 43 -5 49 -9 9 -6 11 -4 5 5 -6 10 -4 12 7 7 9 -3 21 0
28 6 9 9 11 9 7 1 -4 -7 1 -15 10 -18 10 -4 14 -4 10 0 -4 4 1 13 11 21 9 8
11 12 5 8 -7 -3 -13 -1 -13 4 0 6 3 11 8 11 4 0 5 32 2 70 -3 39 -1 70 4 70 4
0 3 7 -4 15 -10 12 -10 15 1 15 11 0 11 2 -1 10 -13 9 -13 10 0 10 12 1 11 3
-3 11 -14 8 -16 14 -6 25 6 7 9 27 7 44 -3 16 -1 30 4 30 4 0 8 5 8 11 0 5 -6
7 -12 3 -8 -5 -7 0 2 11 9 11 10 16 3 11 -8 -4 -13 -1 -13 9 0 9 4 14 9 11 8
-5 6 42 -3 87 -2 9 1 17 6 17 6 0 5 6 -2 15 -10 12 -10 15 1 15 11 0 11 2 -1
10 -13 9 -13 10 0 10 12 1 11 3 -3 11 -14 8 -16 14 -6 25 6 7 9 27 7 44 -3 16
-1 30 4 30 4 0 8 5 8 11 0 5 -6 7 -12 3 -8 -5 -7 0 2 11 9 11 10 16 3 11 -8
-4 -13 -1 -13 9 0 9 4 14 9 11 8 -5 6 42 -3 87 -2 9 -1 17 3 17 4 0 7 9 7 19
0 11 -4 17 -8 15 -4 -3 -8 0 -8 5 0 6 6 11 13 11 8 0 7 4 -3 10 -13 9 -13 10
0 11 10 0 8 3 -5 9 -11 5 -15 9 -9 9 16 1 24 47 11 60 -6 6 -8 11 -4 11 4 0
-18 25 -49 55 -32 30 -61 55 -66 55 -5 0 -6 5 -3 10 3 6 -2 13 -12 17 -26 10
-45 31 -38 43 4 6 1 9 -7 8 -7 -2 -12 3 -10 10 1 8 -2 11 -6 8 -5 -3 -31 19
-58 49 -27 30 -55 55 -61 55 -7 0 -13 6 -13 14 0 8 -13 23 -29 32 -17 10 -28
21 -25 26 3 4 -2 8 -11 8 -9 0 -13 5 -10 10 3 6 -1 10 -9 10 -8 0 -17 9 -21
20 -3 11 -9 19 -13 17 -4 -1 -9 2 -12 7 -9 17 -61 66 -81 76 -10 6 -19 17 -19
25 0 8 -6 15 -14 15 -8 0 -17 9 -21 20 -3 11 -10 19 -15 17 -4 -1 -9 1 -9 5
-1 4 -23 28 -49 53 l-47 45 -1083 0 c-707 0 -1081 -4 -1077 -10z m579 -5908
c3 -5 -1 -9 -9 -9 -8 0 -12 4 -9 9 3 4 7 8 9 8 2 0 6 -4 9 -8z"/>
<path d="M3070 1730 c0 -5 5 -10 11 -10 5 0 7 5 4 10 -3 6 -8 10 -11 10 -2 0
-4 -4 -4 -10z"/>
<path d="M5115 1601 c-3 -5 -2 -12 3 -15 5 -3 9 1 9 9 0 17 -3 19 -12 6z"/>
<path d="M5115 1361 c-3 -5 -2 -12 3 -15 5 -3 9 1 9 9 0 17 -3 19 -12 6z"/>
</g>
</svg>
